<svg width="1024" height="149" viewBox="0 0 1024 149" fill="none" xmlns="http://www.w3.org/2000/svg">
<g opacity="0.5" filter="url(#filter0_f_7928_261)">
<path d="M505.373 -297.71C325.122 -268.654 208.36 -179.182 244.577 -97.8681C280.793 -16.5546 456.275 25.8085 636.526 -3.24741C816.777 -32.3033 933.54 -121.775 897.323 -203.089C861.106 -284.402 685.625 -326.766 505.373 -297.71Z" fill="url(#paint0_linear_7928_261)"/>
<path d="M220 28.7362C362.489 28.7362 478 -39.4813 478 -123.632C478 -207.782 362.489 -276 220 -276C77.5105 -276 -38 -207.782 -38 -123.632C-38 -39.4813 77.5105 28.7362 220 28.7362Z" fill="url(#paint1_linear_7928_261)"/>
</g>
<defs>
<filter id="filter0_f_7928_261" x="-158" y="-426.87" width="1181.91" height="575.606" filterUnits="userSpaceOnUse" color-interpolation-filters="sRGB">
<feFlood flood-opacity="0" result="BackgroundImageFix"/>
<feBlend mode="normal" in="SourceGraphic" in2="BackgroundImageFix" result="shape"/>
<feGaussianBlur stdDeviation="60" result="effect1_foregroundBlur_7928_261"/>
</filter>
<linearGradient id="paint0_linear_7928_261" x1="264.989" y1="-104.845" x2="820.825" y2="67.6078" gradientUnits="userSpaceOnUse">
<stop stop-color="#001AFF"/>
<stop offset="1" stop-color="#6EE5C2"/>
</linearGradient>
<linearGradient id="paint1_linear_7928_261" x1="-2.99999" y1="-96.393" x2="353.855" y2="-247.497" gradientUnits="userSpaceOnUse">
<stop stop-color="#FFC83A"/>
<stop offset="0.504191" stop-color="#FF008A"/>
<stop offset="1" stop-color="#6100FF"/>
</linearGradient>
</defs>
</svg>
