<svg width="376" height="110" viewBox="0 0 376 110" fill="none" xmlns="http://www.w3.org/2000/svg">
<path d="M13.1353 13.8777C14.8618 13.0065 16.7044 12.3874 18.6067 12.0395L51.1284 6.09151C53.8467 5.59436 56.638 5.65968 59.33 6.28343L83.1444 11.8013C85.8555 12.4295 88.6671 12.4912 91.4032 11.9826L119.198 6.81635C124.211 5.88465 129.371 7.34544 133.152 10.7663C136.841 14.1049 141.85 15.581 146.761 14.7765L182.73 8.88313C185.213 8.47634 187.75 8.5365 190.211 9.06053L229.08 17.3378C230.204 17.5772 231.347 17.7203 232.495 17.7656L276.561 19.5012C278.564 19.5801 280.567 19.3608 282.505 18.8504L320.163 8.93411C321.844 8.4916 323.574 8.26758 325.312 8.26758H344.47L360.744 9.2959C362.736 9.42181 364.067 11.4042 363.428 13.2959L356.041 30.0351L351.986 38.9342C351.098 40.8835 348.186 40.2945 348.125 38.1532L347.819 27.3524C347.792 26.4056 346.594 26.0123 346.011 26.7588L338.523 36.3466L324.207 52.2551C323.211 53.3612 321.403 53.0496 320.835 51.6743L319.895 49.3979C319.282 47.9144 317.269 47.7017 316.36 49.0244L305.239 65.2066C305.014 65.5342 304.697 65.7882 304.328 65.9368L299.522 67.8738C298.429 68.3143 297.245 68.4815 296.073 68.3608L295.013 68.2516C292.481 67.9908 290.414 66.1084 289.919 63.6111C289.381 60.8961 286.999 58.9401 284.232 58.9401H282.076C282.005 58.9401 281.942 58.8955 281.918 58.8287L278.509 49.3664C277.764 47.2985 274.72 47.7368 274.589 49.9308L274.325 54.3369C274.285 54.997 273.925 55.5961 273.361 55.9411L238.803 77.0717C235.025 79.3815 232.51 83.2902 231.972 87.6852C231.893 88.331 231.394 88.8452 230.75 88.9431L211.509 91.8715C211.052 91.9411 210.632 92.1653 210.32 92.5068L202.544 101.021C200.101 103.696 196.828 105.472 193.253 106.062L191.72 106.315C187.779 106.966 183.758 105.763 180.821 103.056L180.223 102.505C178.606 101.014 177.501 99.0511 177.064 96.8956L175.469 89.0204C174.408 83.7802 167.806 82.0197 164.276 86.0355C163.906 86.4567 163.212 86.239 163.148 85.6818L162.631 81.1378C161.521 71.3808 153.56 63.8325 143.757 63.242L142.489 63.1656L130.06 60.696C124.487 59.5887 118.705 60.8773 114.13 64.2464L110.892 66.6312C109.315 67.7921 107.409 68.4183 105.451 68.4183H104.896C101.929 68.4183 99.1909 66.8194 97.7326 64.2346C96.802 62.585 95.3307 61.3072 93.567 60.6168L89.9607 59.2051C89.8213 59.1506 89.6888 59.0798 89.5659 58.9943L75.2861 49.0575C74.9472 48.8217 74.5441 48.6953 74.1312 48.6953H66.6931C62.9628 48.6953 59.406 50.2709 56.8996 53.0337C55.3819 54.7067 52.9693 55.2312 50.894 54.3394L43.8343 51.3058C40.159 49.7265 35.8938 50.5234 33.0367 53.3232C30.686 55.6269 26.7813 55.0252 25.2331 52.1208L24.3223 50.4121C23.7156 49.2741 23.285 48.0507 23.045 46.7837L21.9544 41.0254C20.866 35.2789 17.3426 30.2852 12.2935 27.3333L0.330933 20.3391L13.1353 13.8777Z" fill="#98C4E7"/>
<path d="M12.7257 14.0021L0.190186 20.4306L13.4515 30.7356C17.916 34.2048 20.7239 39.3848 21.1943 45.0191L26.2969 106.141L27.377 52.7268C27.4014 51.5187 29.1413 51.3637 29.379 52.5484L32.8418 69.8102C33.3055 72.1215 36.6774 71.9048 36.8413 69.5531L37.4667 60.5796C37.6238 58.325 40.7988 57.9877 41.4261 60.1589L45.9653 75.8678C46.589 78.0259 49.7403 77.71 49.923 75.4709L51.3883 57.5166C51.69 53.8199 56.9235 53.365 57.8585 56.9543C58.3058 58.6715 60.7791 58.5641 61.0758 56.8146L63.8854 40.2506C64.0696 39.1642 65.6121 39.1145 65.8659 40.1868L78.5194 93.652C78.944 95.4459 81.5288 95.3492 81.8182 93.5286L88.0142 54.5456C88.5752 51.0158 93.3094 50.237 94.9716 53.4011C96.4668 56.2474 100.626 55.9792 101.744 52.9644L104.618 45.2063C104.849 44.5835 105.72 44.5563 105.989 45.1635L109.974 54.1502C111.424 57.4178 116.067 57.3998 117.491 54.1211L118.875 50.9325C119.603 49.2563 121.911 49.0818 122.883 50.6296C123.978 52.3744 126.644 51.8776 127.037 49.8554L129.663 36.3518C130.111 34.0439 131.589 32.067 133.676 30.9833L141.889 26.7171C143.071 26.1031 144.514 26.7803 144.797 28.0822L149.734 50.8021C149.962 51.8519 150.106 52.9182 150.164 53.9909L153.102 107.701L157.652 45.408C157.735 44.2673 159.351 44.1204 159.639 45.2274L163.328 59.4231C163.891 61.5901 167.036 61.3709 167.293 59.1468L170.209 33.923C170.34 32.7887 171.957 32.7077 172.201 33.8232L178.638 63.2642C179.14 65.5568 182.488 65.2984 182.632 62.9561L183.867 42.8084C183.894 42.3651 184.513 42.2834 184.654 42.7045L192.948 67.4024C193.064 67.7474 193.387 67.9798 193.751 67.9798C197.383 67.9798 200.61 65.6644 201.774 62.2242L204.071 55.4349C204.369 54.5559 205.631 54.616 205.844 55.5193L210.712 76.1993C211.222 78.368 214.352 78.2376 214.68 76.0339L220.564 36.5205C220.634 36.0539 221.31 36.0637 221.366 36.5321L224.021 58.7681C224.269 60.8413 227.114 61.2247 227.901 59.291L237.636 35.3879C237.803 34.9795 238.41 35.0943 238.415 35.5352L239.375 109.981L245.21 57.7622C245.238 57.5126 245.593 57.4922 245.65 57.737L248.269 69.1335C248.961 72.1422 253.348 71.8098 253.578 68.7312L253.648 67.7993C253.791 65.8809 256.114 65.0082 257.485 66.3573C257.583 66.4537 257.744 66.4411 257.825 66.3307L261.595 61.2364C263.622 58.4976 267.357 57.6715 270.349 59.3003L270.656 59.4672C273.237 60.872 276.444 60.3333 278.424 58.1623C279.428 57.0618 280.785 56.347 282.261 56.1416L282.504 56.1077C285.178 55.7355 287.406 53.8717 288.245 51.3056L290.597 44.1066C292.702 37.6664 298.366 33.0422 305.097 32.2676L310.939 31.5952C314.582 31.1759 317.586 28.547 318.484 24.9918C320.203 18.1932 313.686 12.2042 307.056 14.4889L283.07 22.755C280.619 23.5995 278.03 23.9649 275.441 23.8315L232.77 21.6319C231.286 21.5554 229.815 21.3154 228.383 20.9164L191.043 10.5099C187.892 9.63166 184.575 9.53116 181.376 10.217L147.572 17.4654C142.135 18.6313 136.497 16.7056 132.909 12.4568C129.226 8.09456 123.392 6.19065 117.845 7.54013L92.3556 13.7404C88.844 14.5946 85.1677 14.492 81.7092 13.4433L59.6827 6.76408C56.592 5.82689 53.3219 5.64369 50.1459 6.22979L18.2828 12.1099C16.3482 12.4669 14.4761 13.1044 12.7257 14.0021Z" fill="#D1E6F7"/>
<path d="M0.376824 20.7333C0.0296625 20.7223 -0.134042 20.3245 0.132065 20.1012C4.55006 16.3952 19.3191 10.3909 25.2163 9.55911L46.7841 6.51693C52.2951 5.73957 57.7181 1.7317 63.0163 2.95968L82.7857 7.21178C87.6009 8.32781 94.9935 3.33036 100.845 0.81436C103.246 -0.21806 105.912 -0.154118 108.472 0.372185L117.182 2.16273C119.742 2.68904 122.505 2.33311 124.958 3.23422C128.398 4.49743 130.464 8.32824 133.17 10.7771C136.663 13.9392 142.939 15.3957 148.876 14.4226L178.001 9.64923C182.438 8.92209 186.787 7.72618 191.128 7.87163C193.29 7.94409 195.463 8.13554 197.614 7.89701L206.81 6.87704C208.96 6.63851 211.106 6.8807 212.897 8.09452C215.951 10.1637 220.454 13.7257 223.495 15.6087C225.206 16.6687 227.227 16.5972 229.173 16.082L250.392 10.4655C252.338 9.95037 254.342 9.72693 256.355 9.72236C262.804 9.70772 275.853 9.35767 282.228 8.71056C284.258 8.50448 286.302 8.30346 288.34 8.39455L314.223 9.55105C316.262 9.64214 318.296 9.38909 320.302 9.01563C322.999 8.5136 325.803 8.25712 328.628 8.25712H331.446C339.761 8.25712 350.624 4.88058 359.066 6.51693L375.667 9.4946C376.115 9.57488 376.109 10.2185 375.661 10.2917L357.597 13.239C352.91 14.0036 348.033 12.7607 343.285 12.6892C337.017 12.5949 329.568 15.1071 323.537 16.8591C319.646 17.9894 322.13 22.3589 321.121 23.911C320.25 25.2524 318.087 24.4063 316.489 24.4901L284.081 26.1891C282.484 26.2729 280.886 26.142 279.294 25.9798C273.481 25.3873 265.422 25.9775 259.108 27.2142C255.278 27.9644 251.309 28.2258 247.516 27.3075L218.703 20.3312C218.475 20.276 218.239 20.2609 218.006 20.2865L206.534 21.5482C199.429 22.3296 192.024 18.5116 184.878 18.3962C177.964 18.2845 169.217 21.1385 160.801 23.4722C158.805 24.0258 156.73 24.23 154.661 24.1212L132.834 22.9732C130.765 22.8643 128.69 23.0678 126.702 23.6503C120.365 25.5071 113.386 27.859 107.269 26.3152L88.1326 24.2854C83.0433 23.001 77.5637 22.2054 72.1623 22.809L30.8748 31.9253C23.5881 32.7396 19.8004 28.521 15.4063 24.5428C12.6915 22.0851 9.09145 21.0097 5.43127 20.8936L0.376824 20.7333Z" fill="white"/>
</svg>
